<?xml version="1.0" encoding="UTF-8"?>
<svg id="Layer_1" xmlns="http://www.w3.org/2000/svg" version="1.1" viewBox="0 0 588 118">
  <!-- Generator: Adobe Illustrator 29.4.0, SVG Export Plug-In . SVG Version: 2.1.0 Build 152)  -->
  <defs>
    <style>
      .st0 {
        fill: #232829;
      }

      .st1 {
        fill: #201447;
      }

      .st2 {
        fill: #fff;
      }

      .st3 {
        fill: #d1ced9;
      }

      .st4 {
        fill: #0ac18e;
      }
    </style>
  </defs>
  <path class="st4" d="M349.2,28.5v11.9h-18.6v50h-13.9v-50h-18.7v-11.9h51.2ZM389.6,66.8c0,3.4-.5,6.9-1.6,10.1-1,2.9-2.6,5.6-4.6,7.8-2,2.2-4.5,3.9-7.3,5-3,1.2-6.2,1.8-9.5,1.8-3.2,0-6.4-.6-9.4-1.8-2.8-1.1-5.2-2.9-7.3-5-2.1-2.3-3.7-4.9-4.7-7.8-1.2-3.3-1.7-6.7-1.7-10.1,0-3.4.6-6.9,1.7-10.1,2.1-5.8,6.5-10.4,12.1-12.8,2.9-1.2,6.1-1.8,9.2-1.8,3.2,0,6.4.6,9.3,1.8,2.7,1.1,5.2,2.8,7.3,5,2.1,2.2,3.7,4.9,4.7,7.8,1.2,3.2,1.7,6.6,1.7,10.1h0ZM376,66.8c0-4.1-.8-7.3-2.5-9.7-1.6-2.3-4.2-3.6-7-3.5-2.8-.1-5.5,1.2-7.1,3.5-1.7,2.4-2.5,5.6-2.5,9.7s.8,7.4,2.5,9.8c1.6,2.4,4.2,3.7,7.1,3.6,2.8.1,5.5-1.3,7-3.6,1.6-2.4,2.5-5.7,2.5-9.8ZM408.2,60.4l4.1-4.5c3.7-4.1,7.2-8.3,10.8-12.5h15.8c-3,3.5-6.1,7-9.2,10.4-3.2,3.5-6.5,6.9-9.9,10.2,2,1.8,3.8,3.7,5.5,5.7,1.9,2.2,3.7,4.5,5.5,6.9,1.7,2.3,3.4,4.7,4.9,7.1,1.3,2.1,2.6,4.3,3.7,6.5h-15.3c-1-1.5-2.1-3.3-3.3-5.1-1.2-1.9-2.5-3.8-3.9-5.6-1.4-1.9-2.8-3.7-4.3-5.4-1.4-1.6-2.9-3.1-4.5-4.4v20.5h-13.3V23.3l13.3-2.2v39.3h0ZM436.2,67.2c0-3.7.6-7.5,1.9-10.9,1.1-2.9,2.9-5.6,5-7.8,2-2.1,4.5-3.7,7.2-4.7,2.7-1.1,5.5-1.6,8.3-1.6,6.7,0,11.9,2,15.8,6.1s5.8,10.1,5.8,18c0,.8,0,1.6,0,2.5l-.2,2.5h-30.2c.2,2.6,1.6,5,3.8,6.5,2.3,1.6,5.3,2.4,9.1,2.4s4.8-.2,7.2-.7c2-.3,3.9-.9,5.8-1.7l1.8,10.8c-.9.4-1.9.8-2.9,1.1-1.3.4-2.6.7-4,.9-1.5.3-3,.5-4.7.7s-3.3.3-5,.3c-3.8,0-7.5-.6-11-1.9-2.9-1.1-5.6-2.9-7.8-5.1-2.1-2.2-3.6-4.8-4.6-7.7-1-3.1-1.5-6.4-1.5-9.6h0,0ZM467.5,62.1c0-1.1-.2-2.2-.6-3.3-.6-2.1-2.1-3.9-4.1-4.9-1.2-.6-2.5-.9-3.9-.8-1.3,0-2.6.2-3.8.8-1,.5-1.9,1.2-2.7,2-.7.9-1.3,1.8-1.7,2.9-.4,1.1-.7,2.2-.9,3.3h17.6,0ZM485.7,45c2.9-.8,5.8-1.4,8.7-1.8,3.7-.6,7.5-.9,11.2-.8,3.4-.1,6.8.4,10,1.6,2.5.9,4.6,2.4,6.3,4.4,1.6,2,2.7,4.3,3.3,6.8.7,2.9,1,5.8,1,8.7v26.5h-13.3v-24.9c0-4.3-.6-7.3-1.7-9.1-1.1-1.8-3.2-2.7-6.3-2.7-2,0-3.9.1-5.9.4v36.2h-13.3v-45.3s0,0,0,0ZM546.8,80.8c1.8.1,3.5-.1,5.2-.7,1-.5,1.6-1.6,1.5-2.8,0-1.2-.8-2.3-2-2.8-1.9-1.1-3.9-2-6-2.7-1.9-.7-3.8-1.5-5.7-2.4-1.6-.8-3.1-1.8-4.3-3-1.2-1.2-2.1-2.6-2.8-4.2-.7-1.8-1-3.8-1-5.8-.2-4.1,1.7-8,4.9-10.4,3.3-2.6,7.8-3.8,13.5-3.8s5.5.2,8.2.8c2.1.4,4.2.9,6.3,1.6l-2.3,10.4c-1.7-.6-3.3-1-5-1.4-2-.4-4.1-.6-6.1-.6-4.2,0-6.2,1.2-6.2,3.5s0,1,.3,1.4c.2.5.6.9,1.1,1.2.7.5,1.4.9,2.2,1.3.9.4,2.1.9,3.5,1.5,2.5.9,4.9,1.9,7.2,3.2,1.7.9,3.2,2,4.5,3.4,1.1,1.2,1.9,2.6,2.3,4.1.5,1.7.7,3.4.7,5.2,0,4.6-1.7,8.2-5.2,10.5-3.5,2.4-8.4,3.6-14.8,3.6-5.5.1-11-.9-16.1-2.9l2.2-10.8c2.3.9,4.6,1.6,7,2.1,2.3.5,4.7.7,7,.8h0Z"/>
  <path class="st0" d="M147.2,91.6c-10.1,0-17.7-2.8-23-8.4-5.3-5.6-7.9-13.5-7.9-23.8,0-4.7.7-9.3,2.4-13.7,1.5-3.8,3.7-7.3,6.6-10.2,2.8-2.8,6.3-4.9,10-6.3,4-1.5,8.3-2.2,12.6-2.1,2.4,0,4.8.2,7.1.6,1.9.3,3.8.8,5.6,1.3,2.2.7,4.3,1.6,6.3,2.8l-4,11.2c-4.7-2.5-9.9-3.7-15.3-3.7-2.2,0-4.3.4-6.3,1.1-2.1.7-3.9,1.9-5.4,3.4-1.7,1.7-3,3.8-3.8,6.1-1,2.9-1.5,6-1.4,9.1,0,2.7.3,5.4.9,8,.5,2.3,1.6,4.5,3,6.4,1.5,1.8,3.3,3.3,5.5,4.2,2.6,1.1,5.4,1.6,8.2,1.6,3.3,0,6.6-.4,9.7-1.2,1.1-.3,2.2-.7,3.3-1.1,1-.4,1.8-.8,2.6-1.2l3.8,11.2c-2.6,1.4-5.4,2.5-8.3,3.2-4.1,1-8.2,1.5-12.4,1.4h0ZM189.8,81.1c1.3,0,2.6,0,3.8,0,1,0,1.9-.1,2.9-.3v-10.1c-.8-.2-1.6-.3-2.4-.4-2.1-.2-4.3-.2-6.5,0-1,.1-2,.4-2.9.8-.8.4-1.5,1-2,1.7-.5.8-.8,1.7-.7,2.7,0,2.1.7,3.5,2.1,4.3,1.8.9,3.8,1.3,5.8,1.2h0ZM188.8,42.2c3.3,0,6.6.4,9.8,1.3,2.4.7,4.5,2.1,6.3,3.8,1.6,1.7,2.8,3.8,3.3,6.1.7,2.6,1,5.3,1,7.9v27.7c-1.9.4-4.6.9-7.9,1.5-4.1.6-8.2.9-12.3.9-2.8,0-5.5-.2-8.3-.8-2.3-.5-4.4-1.3-6.4-2.6-1.8-1.2-3.2-2.9-4.1-4.8-1-2.3-1.5-4.7-1.4-7.2,0-2.4.5-4.8,1.7-7,1.1-1.9,2.6-3.4,4.4-4.6,1.9-1.2,4.1-2,6.3-2.5,2.4-.5,4.9-.8,7.4-.8,1.5,0,3.1,0,4.6.2,1.1.1,2.2.3,3.3.6v-1.3c.1-2-.6-4-2.1-5.4-1.4-1.4-3.7-2.1-7.1-2.1s-4.5.2-6.7.5c-1.9.3-3.9.7-5.7,1.4l-1.7-10.7c2.2-.6,4.4-1.1,6.7-1.5,1.4-.2,2.8-.4,4.3-.5,1.5-.2,3.1-.2,4.6-.2h0ZM229.8,80.8c1.8.1,3.5-.1,5.2-.7,1-.5,1.6-1.6,1.5-2.8,0-1.2-.8-2.3-1.9-2.8-1.9-1.1-3.9-2-6-2.7-1.9-.7-3.8-1.5-5.7-2.4-1.6-.8-3.1-1.8-4.3-3-1.2-1.2-2.1-2.6-2.8-4.2-.7-1.8-1-3.8-1-5.8-.2-4.1,1.7-8,4.9-10.4,3.3-2.6,7.8-3.8,13.5-3.8s5.5.2,8.2.8c2.1.4,4.2.9,6.2,1.6l-2.3,10.4c-1.7-.6-3.3-1-5-1.4-2-.4-4.1-.6-6.1-.6-4.2,0-6.2,1.2-6.2,3.5,0,.5,0,1,.3,1.4.2.5.6.9,1.1,1.2.7.5,1.4.9,2.2,1.2.9.5,2.1.9,3.5,1.5,2.5.9,4.9,1.9,7.2,3.2,1.7.9,3.2,2,4.5,3.4,1.1,1.2,1.9,2.6,2.3,4.1.5,1.7.7,3.4.7,5.2,0,4.6-1.7,8.1-5.2,10.5s-8.4,3.6-14.8,3.6c-5.5.1-11-.9-16.1-2.9l2.2-10.8c2.3.9,4.6,1.6,7,2.1,2.3.5,4.7.7,7,.8h0ZM254.7,90.4V23.3l13.3-2.2v22.5c2.4-.8,5-1.2,7.5-1.3,3.2-.1,6.5.4,9.5,1.6,2.4.9,4.5,2.4,6.1,4.4,1.6,2,2.7,4.3,3.2,6.8.6,2.9,1,5.8.9,8.7v26.5h-13.3v-24.9c0-4.3-.6-7.3-1.7-9.1-1.1-1.8-3.1-2.7-6.1-2.7s-2.2.1-3.3.3c-1,.2-2,.4-2.8.7v35.7h-13.3Z"/>
  <g>
    <circle id="purple" class="st1" cx="62.5" cy="59" r="41.8"/>
    <g id="barcode">
      <path class="st3" d="M37.7,81.5l-4.6,4.2c.4.5.9,1,1.4,1.5l4.4-4.4c-.4-.4-.8-.8-1.2-1.2Z"/>
      <path class="st3" d="M35.3,78.5c-.3-.4-.5-.8-.8-1.1l-5.2,3.4c.3.4.6.9.9,1.3l5-3.6Z"/>
      <path class="st3" d="M27.1,76.8l5.5-2.8c-.4-.8-.8-1.7-1.1-2.5l-5.7,2.3c.4,1,.9,2,1.3,3Z"/>
      <path class="st3" d="M24.6,70.5l5.9-1.8c-.1-.4-.3-.9-.4-1.4l-6,1.6c.1.5.3,1.1.4,1.6Z"/>
      <path class="st3" d="M23.5,66l6.1-1.1c0-.5-.1-.9-.2-1.4l-6.1.8c0,.5.2,1.1.2,1.6Z"/>
      <path class="st3" d="M23,62.9l6.2-.6c0-.9-.1-1.8-.2-2.7h-6.2c0,1.2,0,2.3.2,3.4Z"/>
      <path class="st3" d="M23.5,51.6l6.1,1.2c0-.5.2-.9.3-1.4l-6-1.4c-.1.5-.2,1.1-.3,1.6Z"/>
      <path class="st3" d="M24.2,48.6l6,1.6c.5-1.8,1.1-3.5,1.9-5.2l-5.6-2.5c-.9,2-1.6,4-2.2,6.1Z"/>
      <path class="st3" d="M27.7,39.9l5.4,3c.2-.4.5-.8.7-1.2l-5.3-3.2c-.3.5-.6.9-.8,1.4Z"/>
      <path class="st3" d="M31.4,34.3l4.8,3.8c.3-.4.6-.7.9-1.1l-4.7-4c-.4.4-.7.8-1.1,1.3Z"/>
      <path class="st3" d="M38.9,35.3c.7-.6,1.3-1.3,2-1.9l-4-4.7c-.8.7-1.6,1.4-2.4,2.2l4.4,4.4Z"/>
      <path class="st3" d="M45.1,30.4c.4-.2.8-.5,1.2-.7l-3-5.4c-.5.3-1,.5-1.4.8l3.2,5.3Z"/>
      <path class="st3" d="M48.9,28.4c.8-.4,1.7-.7,2.6-1l-2-5.8c-1,.4-2.1.8-3,1.2l2.5,5.7Z"/>
      <path class="st3" d="M52.6,27c1.3-.4,2.6-.7,4-1l-1.1-6.1c-1.6.3-3.2.7-4.7,1.1l1.8,5.9Z"/>
      <path class="st3" d="M60.4,25.6c.5,0,.9,0,1.4,0v-6.2c-.7,0-1.2,0-1.8,0l.4,6.2Z"/>
      <path class="st3" d="M64.7,25.6c.5,0,.9,0,1.4.1l.7-6.2c-.5,0-1.1-.1-1.6-.1l-.4,6.2Z"/>
      <path class="st3" d="M69.8,26.3c1.8.4,3.6,1,5.3,1.6l2.3-5.7c-2-.8-4.1-1.4-6.2-1.9l-1.4,6Z"/>
      <path class="st3" d="M76.1,28.4c.4.2.8.4,1.3.6l2.7-5.5c-.5-.2-1-.5-1.5-.7l-2.5,5.6Z"/>
      <path class="st3" d="M80,30.4c.8.5,1.6,1,2.3,1.5l3.6-5c-.9-.6-1.8-1.2-2.7-1.8l-3.2,5.3Z"/>
      <path class="st3" d="M87.1,36.3l4.5-4.2c-.4-.4-.7-.8-1.1-1.2l-4.4,4.4c.3.3.6.6.9,1Z"/>
      <path class="st3" d="M93.6,34.4l-4.9,3.8c.3.4.6.7.8,1.1l5-3.6c-.3-.4-.7-.9-1-1.3Z"/>
      <path class="st3" d="M96.6,38.6l-5.3,3.2c.2.4.5.8.7,1.2l5.4-3c-.3-.5-.5-1-.8-1.4Z"/>
      <path class="st3" d="M98.1,41.4l-5.5,2.7c.4.8.8,1.7,1.1,2.5l5.7-2.3c-.4-1-.8-2-1.3-3Z"/>
      <path class="st3" d="M100.4,47.1l-5.9,1.8c.1.4.3.9.4,1.3l6-1.6c-.1-.5-.3-1-.4-1.6Z"/>
      <path class="st3" d="M102.2,60c0-.3,0-.7,0-1,0-.8,0-1.5,0-2.3l-6.2.3c0,.6,0,1.3,0,1.9s0,.6,0,.9h6.2Z"/>
      <path class="st3" d="M101.6,66.1l-6.1-1.1c0,.5-.2.9-.3,1.4l6,1.3c.1-.5.2-1.1.3-1.6Z"/>
      <path class="st3" d="M100.9,69.1l-6-1.6c-.1.4-.2.9-.4,1.3l5.9,1.8c.2-.5.3-1,.4-1.6Z"/>
      <path class="st3" d="M98.6,75.4l-5.6-2.6c-.2.4-.4.8-.6,1.3l5.5,2.8c.2-.5.5-1,.7-1.5Z"/>
      <path class="st3" d="M97.3,78.1l-5.4-3c-.9,1.6-1.9,3.2-3,4.6l4.9,3.8c1.3-1.7,2.5-3.5,3.6-5.4Z"/>
      <path class="st3" d="M87.3,81.6c-.4.4-.7.8-1.1,1.1l4.4,4.4c.4-.4.9-.9,1.3-1.3l-4.6-4.2Z"/>
    </g>
    <g id="BCH">
      <circle id="green" class="st4" cx="62.5" cy="59" r="31.4"/>
      <path id="symbol" class="st2" d="M72.3,48.5c-1.6-3.6-5.2-4.3-9.6-3.6l-1.4-5.5-3.4.9,1.4,5.5c-.9.2-1.8.4-2.7.7l-1.4-5.5-3.4.9,1.4,5.5c-.7.2-6.8,1.8-6.8,1.8l.9,3.6s2.5-.7,2.4-.6c1.4-.4,2,.3,2.3,1l3.9,15.1c0,.4,0,1.2-1,1.4,0,0-2.4.6-2.4.6l.4,4.2s6-1.5,6.8-1.7l1.4,5.6,3.4-.9-1.4-5.6c.9-.2,1.8-.4,2.7-.7l1.4,5.6,3.4-.9-1.4-5.6c5.2-1.3,8.8-4.5,8.1-9.5-.5-3-3.8-5.5-6.5-5.8,1.7-1.5,2.5-3.7,1.5-6.5h0ZM70.7,61.6c.7,4.9-6.2,5.5-8.5,6.1l-2-7.4c2.3-.6,9.3-3.1,10.4,1.2ZM66.5,51.6c.7,4.4-5.2,4.9-7.1,5.4l-1.8-6.7c1.9-.5,7.4-2.7,8.9,1.3Z"/>
    </g>
    <g id="text">
      <path id="s" class="st2" d="M83.3,91.7c.2-.1.3-.2.4-.3s0-.2,0-.3c0,0-.2-.1-.3-.1-.1,0-.3,0-.6,0-.2,0-.4,0-.6,0-.2,0-.3,0-.5,0s-.3,0-.4-.2c-.1,0-.3-.2-.4-.4-.2-.3-.3-.7-.1-1.1.1-.4.4-.7.9-1,.2-.1.4-.3.7-.4.2,0,.4-.2.6-.2l.3.9c-.1,0-.3,0-.5.1s-.3.1-.5.3c-.3.2-.4.4-.3.6,0,0,0,0,0,0,0,0,0,0,.1,0,0,0,.1,0,.2,0,0,0,.2,0,.4,0,.3,0,.5-.1.7-.1.2,0,.4,0,.5,0,.1,0,.3.1.4.2.1,0,.2.2.3.4.2.4.3.7.1,1.1-.2.4-.5.7-1,1-.3.2-.6.4-.9.4-.3,0-.4.1-.5.2l-.4-1c.2,0,.4-.1.6-.2.2,0,.4-.2.6-.3Z"/>
      <path id="n" class="st2" d="M76.3,91.7c.2-.1.4-.3.7-.5.3-.2.6-.4.9-.5.3-.2.6-.3.9-.3.3,0,.5,0,.7.1.2,0,.4.2.6.4.2.2.3.4.4.7l1.1,2.2-1.1.5-1-2.1c-.2-.4-.3-.6-.5-.7-.2-.1-.4,0-.6,0,0,0-.2,0-.2.1s-.2,0-.2.1l1.5,3-1.1.5-1.8-3.8Z"/>
      <path id="e" class="st2" d="M72.5,95.2c-.1-.4-.2-.7-.2-1,0-.3,0-.6.2-.8.1-.2.3-.5.5-.6.2-.2.4-.3.7-.4.6-.2,1.1-.2,1.6,0,.5.2.8.7,1,1.4,0,0,0,.1,0,.2,0,0,0,.2,0,.2l-2.7.9c.1.2.3.4.5.5.2,0,.5,0,.9,0,.2,0,.4-.2.6-.3.2-.1.3-.2.5-.3l.5.9c0,0-.1.1-.2.2,0,0-.2.1-.3.2-.1,0-.3.1-.4.2-.1,0-.3.1-.4.2-.4.1-.7.2-1,.2-.3,0-.6,0-.8-.2-.2-.1-.5-.3-.6-.5s-.3-.5-.4-.8ZM75.1,93.9c0,0,0-.2-.1-.3,0,0-.1-.2-.2-.2,0,0-.2,0-.3-.1-.1,0-.2,0-.4,0-.1,0-.2.1-.3.2,0,0-.1.2-.2.3s0,.2,0,.3,0,.2,0,.3l1.5-.5Z"/>
      <path id="k" class="st2" d="M69.3,95.3c0-.2.2-.3.3-.5,0-.2.2-.3.3-.5,0-.2.2-.3.3-.5,0-.1.1-.3.2-.4l1.4-.3c-.2.4-.4.8-.6,1.1-.2.4-.4.7-.7,1.1.2.1.4.3.6.4.2.2.4.3.6.5.2.2.4.4.6.6.2.2.3.4.5.5l-1.4.3c-.1-.1-.2-.3-.4-.4-.1-.1-.3-.3-.5-.4s-.3-.3-.5-.4c-.2-.1-.3-.2-.5-.3l.4,1.9-1.2.2-1.2-6.1,1.2-.4.7,3.6Z"/>
      <path id="o" class="st2" d="M67.3,96.2c0,.3,0,.7,0,.9,0,.3-.2.5-.4.8-.2.2-.4.4-.6.5s-.5.2-.9.2c-.3,0-.6,0-.9-.1-.3,0-.5-.2-.7-.4-.2-.2-.4-.4-.5-.7-.1-.3-.2-.6-.2-.9,0-.3,0-.7,0-.9,0-.3.2-.5.4-.8.2-.2.4-.4.6-.5.3-.1.5-.2.8-.2.3,0,.6,0,.9.1.3,0,.5.2.7.4.2.2.4.4.5.7s.2.6.2.9ZM66,96.3c0-.4-.1-.7-.3-.9s-.4-.3-.7-.3c-.3,0-.5.1-.6.4-.1.2-.2.5-.2.9s.1.7.3.9c.2.2.4.3.7.3s.5-.1.6-.4c.1-.2.2-.5.2-.9Z"/>
      <path id="T" class="st2" d="M63.2,93v1.1c0,0-1.8,0-1.8,0l-.2,4.6h-1.3c0,0,.2-4.7.2-4.7h-1.7c0,0,0-1.2,0-1.2l4.8.2Z"/>
      <path id="h" class="st2" d="M53.5,97.7l1.1-6.1h1.3s-.4,2.1-.4,2.1c0,0,.2,0,.3,0,.1,0,.3,0,.4,0,.3,0,.6.2.8.3.2.1.4.3.5.5s.2.4.2.7c0,.2,0,.5,0,.8l-.4,2.4-1.2-.2.4-2.3c0-.4,0-.7,0-.9,0-.2-.2-.3-.5-.3-.1,0-.2,0-.3,0,0,0-.2,0-.3,0l-.6,3.3-1.2-.2Z"/>
      <path id="s1" data-name="s" class="st2" d="M50.8,96c.2,0,.4,0,.5,0,.1,0,.2,0,.2-.2,0,0,0-.2,0-.3,0-.1-.2-.2-.5-.4-.2-.1-.3-.2-.4-.4-.1-.1-.2-.2-.3-.4s-.1-.3-.1-.4,0-.3,0-.5c.1-.4.4-.7.7-.8.4-.1.8-.1,1.3,0,.3,0,.5.2.7.3.2.1.4.2.5.3l-.5.9c-.1,0-.3-.2-.4-.3s-.3-.2-.5-.2c-.4-.1-.6,0-.7.1,0,0,0,0,0,.1,0,0,0,0,0,.1,0,0,0,.1.2.2s.2.1.3.2c.2.2.4.3.6.5.1.1.2.3.3.4,0,.1,0,.3,0,.4,0,.1,0,.3,0,.5-.1.4-.4.7-.8.8-.4.1-.8,0-1.4,0-.4-.1-.7-.2-.9-.4-.2-.1-.4-.2-.5-.3l.5-.9c.2.1.4.3.6.4.2.1.4.2.6.3Z"/>
      <path id="a" class="st2" d="M48.1,91.1c.3.1.6.3.8.5.2.2.3.4.4.6,0,.2,0,.4,0,.6,0,.2-.1.5-.2.7l-1,2.4c-.2,0-.4,0-.7-.2-.3,0-.7-.2-1.1-.4-.3-.1-.5-.2-.7-.4-.2-.1-.3-.3-.4-.5-.1-.2-.2-.4-.2-.6,0-.2,0-.4.2-.7.1-.2.2-.4.4-.5.2-.1.3-.2.5-.2.2,0,.4,0,.6,0,.2,0,.4.1.7.2.1,0,.3.1.4.2.1,0,.2.1.3.2h0c0-.3,0-.5,0-.6s-.2-.3-.5-.4c-.2,0-.4-.2-.6-.2-.2,0-.4,0-.5,0l.3-1c0,0,.2,0,.3,0,.1,0,.2,0,.3,0,.1,0,.3,0,.4.1.1,0,.3,0,.4.2ZM46.8,94.5c.1,0,.2,0,.3.1.1,0,.2,0,.3,0l.4-.9s-.1,0-.2-.1c0,0-.2,0-.2-.1-.1,0-.2,0-.3-.1,0,0-.2,0-.3,0,0,0-.2,0-.2,0,0,0-.1.1-.2.2,0,.2,0,.3,0,.4,0,.1.2.2.4.3Z"/>
      <path id="C" class="st2" d="M42.1,93.2c-.8-.5-1.3-1.1-1.4-1.8-.1-.7,0-1.5.5-2.3.2-.4.5-.7.9-1s.7-.4,1-.5c.4,0,.7,0,1.1,0,.4,0,.7.2,1.1.4.2.1.4.3.5.4.2.1.3.3.4.4s.2.2.2.3c0,0,0,.2.1.2l-.9.7c-.1-.2-.2-.3-.4-.5-.2-.2-.4-.3-.6-.5-.2-.1-.4-.2-.5-.2s-.4,0-.6,0-.4.1-.6.3c-.2.2-.4.4-.6.6-.1.2-.2.5-.3.7,0,.2,0,.4,0,.7,0,.2,0,.4.2.6.1.2.3.4.6.5.2,0,.3.2.4.2s.3.1.4.1c.1,0,.2,0,.3,0,0,0,.2,0,.3,0l-.2,1.1c-.2,0-.5,0-.8-.2-.3,0-.7-.3-1.1-.5Z"/>
    </g>
  </g>
</svg>