<?xml version="1.0" encoding="UTF-8"?>
<svg xmlns="http://www.w3.org/2000/svg" xmlns:xlink="http://www.w3.org/1999/xlink" version="1.1" viewBox="0 0 1024 512">
  <!-- Generator: Adobe Illustrator 29.4.0, SVG Export Plug-In . SVG Version: 2.1.0 Build 152)  -->
  <defs>
    <style>
      .st0 {
        fill: none;
      }

      .st1 {
        fill: #232829;
      }

      .st2 {
        fill: #201447;
      }

      .st3 {
        fill: #fff;
      }

      .st4 {
        fill: #d1ced9;
      }

      .st5 {
        fill: #0ac18e;
      }

      .st6 {
        clip-path: url(#clippath);
      }
    </style>
    <clipPath id="clippath">
      <rect class="st0" width="1024" height="512"/>
    </clipPath>
  </defs>
  <g id="Layer_2">
    <path class="st1" d="M0,0h1024v512H0V0Z"/>
  </g>
  <g id="Layer_1">
    <g class="st6">
      <g>
        <path class="st5" d="M564.3,228.2v11.6h-18.2v48.7h-13.6v-48.7h-18.2v-11.6h49.9ZM603.7,265.5c0,3.4-.5,6.7-1.6,9.9-1,2.8-2.5,5.4-4.5,7.6-2,2.1-4.4,3.8-7.1,4.9-2.9,1.2-6.1,1.8-9.3,1.7-3.1,0-6.3-.5-9.2-1.7-2.7-1.1-5.1-2.8-7.1-4.9-2-2.2-3.6-4.8-4.6-7.6-1.1-3.2-1.7-6.5-1.7-9.9,0-3.4.5-6.7,1.7-9.8,1-2.8,2.6-5.4,4.7-7.6,2-2.1,4.4-3.8,7.1-4.9,2.9-1.2,5.9-1.8,9-1.7,3.1,0,6.2.6,9.1,1.7,2.7,1.1,5.1,2.8,7.1,4.9,2,2.2,3.6,4.8,4.6,7.6,1.1,3.2,1.7,6.5,1.7,9.8h0ZM590.4,265.5c0-4-.8-7.1-2.4-9.4-1.5-2.3-4.1-3.5-6.8-3.4-2.7-.1-5.3,1.2-6.9,3.4-1.6,2.3-2.4,5.4-2.4,9.4s.8,7.2,2.4,9.5c1.5,2.3,4.1,3.6,6.9,3.5,2.7.1,5.3-1.2,6.8-3.5,1.6-2.3,2.4-5.5,2.4-9.5ZM621.8,259.3l4-4.4c1.4-1.5,2.7-3,4-4.5,1.3-1.5,2.5-2.9,3.6-4.2,1.1-1.3,2.1-2.5,2.9-3.5h15.4c-3.1,3.5-6.1,6.9-9,10.1-2.9,3.2-6.1,6.5-9.6,10,1.9,1.7,3.7,3.6,5.4,5.6,1.9,2.2,3.7,4.4,5.4,6.8s3.3,4.6,4.8,7c1.4,2.3,2.7,4.4,3.7,6.4h-14.9c-.9-1.5-2-3.2-3.2-5s-2.4-3.7-3.8-5.5c-1.3-1.8-2.7-3.6-4.2-5.3-1.3-1.5-2.8-3-4.4-4.3v20h-13v-65.4l13-2.1v38.3ZM649.2,266c0-3.6.6-7.3,1.9-10.7,1.1-2.8,2.8-5.4,4.9-7.6,2-2,4.4-3.6,7-4.6,2.6-1,5.3-1.6,8.1-1.6,6.5,0,11.6,2,15.4,6,3.8,4,5.7,9.8,5.7,17.5,0,.8,0,1.6,0,2.5,0,.9-.1,1.7-.2,2.4h-29.4c.2,2.6,1.6,4.9,3.7,6.3,2.2,1.6,5.2,2.4,8.9,2.4,2.3,0,4.7-.2,7-.6,1.9-.3,3.8-.9,5.6-1.6l1.7,10.5c-.9.4-1.8.8-2.8,1-1.3.4-2.6.7-3.9.9-1.4.3-2.9.5-4.6.7-1.6.2-3.2.3-4.9.3-3.7,0-7.3-.5-10.7-1.8-2.9-1.1-5.4-2.8-7.6-5-2-2.1-3.5-4.7-4.4-7.5-1-3-1.5-6.2-1.4-9.4h0ZM679.6,261c0-1.1-.2-2.2-.6-3.2-.3-1-.8-2-1.5-2.8-.7-.8-1.6-1.5-2.5-2-1.2-.6-2.5-.8-3.8-.8-1.3,0-2.6.2-3.7.7-1,.5-1.9,1.1-2.6,2-.7.8-1.3,1.8-1.6,2.8-.4,1.1-.7,2.2-.8,3.3h17.1ZM697.3,244.3c2.8-.8,5.7-1.4,8.5-1.8,3.6-.6,7.3-.8,11-.8,3.3,0,6.6.4,9.7,1.5,2.4.9,4.5,2.4,6.1,4.3,1.5,1.9,2.6,4.2,3.2,6.6.7,2.8,1,5.7,1,8.5v25.8h-13v-24.3c0-4.2-.5-7.1-1.7-8.9-1.1-1.7-3.2-2.6-6.2-2.6-.9,0-1.9,0-3,.1s-2,.2-2.8.3v35.3h-13v-44.2ZM756.9,279.2c1.7.1,3.4-.1,5-.7,1-.5,1.6-1.6,1.5-2.7,0-1.2-.8-2.2-1.9-2.7-1.9-1.1-3.8-1.9-5.8-2.6-1.9-.7-3.7-1.5-5.5-2.4-1.6-.7-3-1.7-4.2-2.9-1.2-1.1-2.1-2.5-2.7-4-.7-1.8-1-3.7-1-5.6-.2-4,1.6-7.8,4.8-10.2,3.2-2.5,7.6-3.7,13.1-3.7,2.7,0,5.4.2,8,.7,2.1.4,4.1.9,6.1,1.6l-2.3,10.1c-1.6-.6-3.3-1-4.9-1.4-2-.4-4-.6-6-.6-4.1,0-6.1,1.1-6.1,3.4,0,.5,0,.9.3,1.4.2.5.6.9,1,1.2.7.5,1.4.9,2.1,1.2.9.4,2,.9,3.4,1.4,2.4.9,4.8,1.9,7,3.1,1.6.8,3.1,2,4.4,3.3,1,1.1,1.8,2.5,2.3,4,.5,1.6.7,3.3.7,5,0,4.5-1.7,8-5.1,10.3-3.4,2.3-8.2,3.5-14.4,3.5-3.4,0-6.8-.3-10.1-1-1.9-.4-3.8-1-5.6-1.7l2.2-10.5c2.2.9,4.5,1.6,6.8,2,2.3.5,4.6.7,6.9.7h0Z"/>
        <g>
          <circle id="purple" class="st2" cx="286.3" cy="259" r="42.2"/>
          <g id="barcode">
            <path class="st4" d="M261.2,281.7l-4.6,4.2c.5.5.9,1,1.4,1.5l4.4-4.4c-.4-.4-.8-.8-1.2-1.2Z"/>
            <path class="st4" d="M258.8,278.7c-.3-.4-.5-.8-.8-1.1l-5.2,3.4c.3.4.6.9.9,1.3l5.1-3.6Z"/>
            <path class="st4" d="M250.5,277l5.6-2.8c-.4-.8-.8-1.7-1.2-2.6l-5.8,2.3c.4,1,.9,2,1.4,3Z"/>
            <path class="st4" d="M248,270.6l6-1.8c-.1-.5-.3-.9-.4-1.4l-6,1.6c.1.5.3,1.1.5,1.6Z"/>
            <path class="st4" d="M246.8,266l6.2-1.1c0-.5-.2-.9-.2-1.4l-6.2.9c0,.5.2,1.1.3,1.6Z"/>
            <path class="st4" d="M246.4,263l6.2-.6c0-.9-.1-1.8-.2-2.8h-6.2c0,1.2,0,2.3.2,3.4Z"/>
            <path class="st4" d="M246.9,251.5l6.1,1.2c0-.5.2-.9.3-1.4l-6.1-1.4c-.1.5-.2,1.1-.3,1.6Z"/>
            <path class="st4" d="M247.6,248.5l6,1.7c.5-1.8,1.1-3.6,1.9-5.2l-5.7-2.6c-.9,2-1.6,4-2.2,6.2Z"/>
            <path class="st4" d="M251.2,239.7l5.5,3c.2-.4.5-.8.7-1.2l-5.4-3.2c-.3.5-.6.9-.8,1.4Z"/>
            <path class="st4" d="M254.9,234.1l4.9,3.9c.3-.4.6-.7.9-1.1l-4.7-4.1c-.4.4-.7.8-1.1,1.3Z"/>
            <path class="st4" d="M262.4,235c.7-.7,1.3-1.3,2.1-1.9l-4-4.8c-.8.7-1.6,1.4-2.4,2.2l4.4,4.4Z"/>
            <path class="st4" d="M268.7,230.1c.4-.2.8-.5,1.2-.7l-3-5.5c-.5.3-1,.5-1.4.8l3.2,5.3Z"/>
            <path class="st4" d="M272.6,228.1c.9-.4,1.7-.7,2.6-1l-2.1-5.9c-1,.4-2.1.8-3.1,1.2l2.5,5.7Z"/>
            <path class="st4" d="M276.3,226.7c1.3-.4,2.7-.7,4.1-1l-1.1-6.1c-1.6.3-3.2.7-4.8,1.2l1.8,6Z"/>
            <path class="st4" d="M284.1,225.3c.5,0,.9,0,1.4,0v-6.2c-.7,0-1.2,0-1.8,0l.4,6.2Z"/>
            <path class="st4" d="M288.5,225.3c.5,0,.9,0,1.4.1l.7-6.2c-.5,0-1.1-.1-1.7-.1l-.4,6.2Z"/>
            <path class="st4" d="M293.7,226c1.8.4,3.6,1,5.3,1.7l2.3-5.8c-2-.8-4.1-1.5-6.2-1.9l-1.4,6.1Z"/>
            <path class="st4" d="M300,228.1c.4.2.9.4,1.3.6l2.8-5.6c-.5-.2-1-.5-1.5-.7l-2.5,5.7Z"/>
            <path class="st4" d="M303.9,230.1c.8.5,1.6,1,2.3,1.6l3.7-5.1c-.9-.6-1.8-1.3-2.7-1.8l-3.3,5.3Z"/>
            <path class="st4" d="M311.1,236l4.6-4.2c-.4-.4-.7-.8-1.1-1.2l-4.4,4.4c.3.3.6.7,1,1Z"/>
            <path class="st4" d="M317.7,234.1l-4.9,3.9c.3.4.6.7.9,1.1l5.1-3.7c-.3-.4-.7-.9-1-1.3Z"/>
            <path class="st4" d="M320.7,238.4l-5.4,3.2c.2.4.5.8.7,1.2l5.5-3c-.3-.5-.5-1-.8-1.5Z"/>
            <path class="st4" d="M322.2,241.2l-5.6,2.8c.4.8.8,1.7,1.1,2.6l5.8-2.3c-.4-1-.9-2-1.3-3Z"/>
            <path class="st4" d="M324.5,247l-6,1.9c.1.4.3.9.4,1.3l6-1.6c-.1-.5-.3-1.1-.5-1.6Z"/>
            <path class="st4" d="M326.3,260c0-.3,0-.7,0-1,0-.8,0-1.5,0-2.3l-6.2.3c0,.6,0,1.3,0,1.9s0,.6,0,.9h6.2Z"/>
            <path class="st4" d="M325.7,266.1l-6.1-1.1c0,.5-.2.9-.3,1.4l6.1,1.3c.1-.5.2-1.1.3-1.6Z"/>
            <path class="st4" d="M325.1,269.2l-6-1.6c-.1.5-.2.9-.4,1.3l6,1.8c.2-.5.3-1.1.4-1.6Z"/>
            <path class="st4" d="M322.8,275.6l-5.7-2.6c-.2.4-.4.9-.6,1.3l5.6,2.8c.3-.5.5-1,.7-1.5Z"/>
            <path class="st4" d="M321.4,278.3l-5.5-3c-.9,1.6-1.9,3.2-3.1,4.6l4.9,3.8c1.3-1.7,2.6-3.5,3.6-5.5Z"/>
            <path class="st4" d="M311.3,281.8c-.4.4-.7.8-1.1,1.1l4.4,4.4c.4-.4.9-.9,1.3-1.3l-4.6-4.2Z"/>
          </g>
          <g id="BCH">
            <circle id="green" class="st5" cx="286.3" cy="259" r="31.7"/>
            <path id="symbol" class="st3" d="M296.2,248.4c-1.6-3.6-5.2-4.4-9.7-3.6l-1.4-5.6-3.4.9,1.4,5.6c-.9.2-1.8.4-2.7.7l-1.4-5.5-3.4.9,1.4,5.6c-.7.2-6.8,1.8-6.8,1.8l.9,3.6s2.5-.7,2.5-.6c1.4-.4,2,.3,2.3,1l4,15.3c0,.4,0,1.2-1,1.5,0,0-2.5.6-2.5.6l.4,4.2s6.1-1.6,6.9-1.8l1.5,5.6,3.4-.9-1.5-5.7c.9-.2,1.8-.4,2.7-.7l1.4,5.6,3.4-.9-1.5-5.6c5.2-1.3,8.9-4.6,8.2-9.6-.5-3-3.8-5.5-6.6-5.8,1.7-1.5,2.6-3.7,1.5-6.6h0ZM294.5,261.7c.7,5-6.3,5.6-8.6,6.2l-2-7.5c2.3-.6,9.4-3.1,10.5,1.3ZM290.4,251.5c.7,4.4-5.2,5-7.1,5.4l-1.8-6.8c1.9-.5,7.5-2.8,8.9,1.3Z"/>
          </g>
          <g id="text">
            <path id="s" class="st3" d="M307.3,292c.2-.1.3-.2.4-.3s0-.2,0-.3c0,0-.2-.1-.3-.1-.1,0-.3,0-.6,0-.2,0-.4,0-.6,0-.2,0-.3,0-.5,0s-.3,0-.4-.2c-.1,0-.3-.2-.4-.4-.2-.3-.3-.7-.1-1.1.1-.4.4-.7.9-1,.2-.1.5-.3.7-.4.2,0,.4-.2.6-.2l.3.9c-.1,0-.3,0-.5.1s-.3.1-.5.3c-.3.2-.4.4-.3.6,0,0,0,0,0,0,0,0,0,0,.1,0,0,0,.1,0,.2,0,0,0,.2,0,.4,0,.3,0,.5-.1.7-.1.2,0,.4,0,.5,0,.1,0,.3.1.4.2.1,0,.2.2.3.4.2.4.3.7.1,1.1-.2.4-.5.7-1,1-.3.2-.6.4-.9.4-.3,0-.4.1-.5.2l-.4-1c.2,0,.4-.1.7-.2.2,0,.4-.2.6-.3Z"/>
            <path id="n" class="st3" d="M300.3,292c.2-.1.4-.3.7-.5.3-.2.6-.4.9-.5.3-.2.6-.3.9-.3.3,0,.5,0,.7.1.2,0,.4.2.6.4.2.2.3.4.4.7l1.1,2.2-1.1.5-1-2.1c-.2-.4-.3-.6-.5-.7-.2-.1-.4,0-.6,0,0,0-.2,0-.3.1s-.2,0-.2.1l1.5,3.1-1.1.5-1.9-3.8Z"/>
            <path id="e" class="st3" d="M296.3,295.6c-.1-.4-.2-.7-.2-1,0-.3,0-.6.2-.8.1-.2.3-.5.5-.6.2-.2.4-.3.7-.4.6-.2,1.1-.2,1.6,0,.5.2.8.7,1.1,1.4,0,0,0,.1,0,.2,0,0,0,.2,0,.2l-2.7.9c.1.2.3.4.5.5.2,0,.5,0,.9,0,.2,0,.4-.2.6-.3.2-.1.4-.2.5-.3l.5.9c0,0-.1.1-.2.2,0,0-.2.1-.3.2-.1,0-.3.1-.4.2-.1,0-.3.1-.4.2-.4.1-.7.2-1,.2-.3,0-.6,0-.8-.2-.2-.1-.5-.3-.6-.6s-.3-.5-.4-.8ZM299,294.2c0,0,0-.2-.1-.3,0,0-.1-.2-.2-.2,0,0-.2,0-.3-.1-.1,0-.2,0-.4,0-.1,0-.2.1-.3.2,0,0-.1.2-.2.3s0,.2,0,.3,0,.2,0,.3l1.6-.5Z"/>
            <path id="k" class="st3" d="M293.2,295.6c0-.2.2-.3.3-.5,0-.2.2-.3.3-.5,0-.2.2-.3.3-.5,0-.1.2-.3.2-.4l1.5-.3c-.2.4-.4.8-.7,1.1-.2.4-.5.7-.7,1.1.2.1.4.3.6.4.2.2.4.3.6.5.2.2.4.4.6.6.2.2.3.4.5.5l-1.4.3c-.1-.1-.2-.3-.4-.4-.1-.2-.3-.3-.5-.4s-.3-.3-.5-.4c-.2-.1-.3-.2-.5-.3l.4,1.9-1.2.2-1.3-6.2,1.2-.4.7,3.6Z"/>
            <path id="o" class="st3" d="M291.1,296.6c0,.3,0,.7,0,1,0,.3-.2.5-.4.8-.2.2-.4.4-.6.5s-.5.2-.9.2c-.3,0-.6,0-.9-.1-.3,0-.5-.2-.7-.4-.2-.2-.4-.4-.5-.7-.1-.3-.2-.6-.2-.9,0-.3,0-.7,0-1,0-.3.2-.5.4-.8.2-.2.4-.4.7-.5.3-.1.5-.2.9-.2.3,0,.6,0,.9.1.3,0,.5.2.7.4.2.2.4.4.5.7s.2.6.2.9ZM289.8,296.7c0-.4-.1-.7-.3-.9s-.4-.3-.7-.3c-.3,0-.5.1-.6.4-.1.2-.2.5-.2.9s.1.7.3.9c.2.2.4.3.7.3s.5-.1.6-.4c.1-.2.2-.5.2-.9Z"/>
            <path id="T" class="st3" d="M287,293.3v1.1c0,0-1.8,0-1.8,0l-.2,4.7h-1.3c0,0,.2-4.7.2-4.7h-1.7c0,0,0-1.2,0-1.2l4.8.2Z"/>
            <path id="h" class="st3" d="M277.2,298.1l1.1-6.2h1.3s-.4,2.1-.4,2.1c0,0,.2,0,.3,0,.1,0,.3,0,.4,0,.4,0,.6.2.9.3.2.1.4.3.5.5s.2.4.2.7c0,.3,0,.5,0,.8l-.4,2.4-1.2-.2.4-2.3c0-.4,0-.7,0-.9,0-.2-.2-.3-.5-.4-.1,0-.2,0-.3,0,0,0-.2,0-.3,0l-.6,3.3-1.2-.2Z"/>
            <path id="s1" data-name="s" class="st3" d="M274.5,296.4c.2,0,.4,0,.5,0,.1,0,.2,0,.2-.2,0,0,0-.2,0-.3,0-.1-.2-.2-.5-.4-.2-.1-.3-.3-.4-.4-.1-.1-.2-.3-.3-.4s-.1-.3-.1-.4,0-.3,0-.5c.1-.4.4-.7.7-.8.4-.1.8-.1,1.3,0,.3,0,.5.2.7.3.2.1.4.2.5.3l-.5.9c-.1,0-.3-.2-.4-.3s-.3-.2-.5-.2c-.4-.1-.6,0-.7.1,0,0,0,0,0,.1,0,0,0,0,0,.1,0,0,0,.1.2.2s.2.1.3.2c.2.2.4.3.6.5.1.1.2.3.3.4,0,.1,0,.3,0,.4,0,.1,0,.3,0,.5-.1.4-.4.7-.8.8-.4.1-.9,0-1.4,0-.4-.1-.7-.2-.9-.4-.2-.1-.4-.2-.5-.3l.5-.9c.2.1.4.3.6.4.2.1.4.2.6.3Z"/>
            <path id="a" class="st3" d="M271.8,291.4c.3.1.6.3.8.5.2.2.3.4.4.6,0,.2,0,.4,0,.6,0,.2-.1.5-.2.7l-1.1,2.4c-.2,0-.4,0-.7-.2-.3,0-.7-.2-1.1-.4-.3-.1-.5-.2-.7-.4-.2-.1-.3-.3-.4-.5-.1-.2-.2-.4-.2-.6,0-.2,0-.4.2-.7.1-.2.2-.4.4-.5.2-.1.4-.2.6-.2.2,0,.4,0,.6,0,.2,0,.4.1.7.2.1,0,.3.1.4.2.1,0,.2.1.3.2h0c0-.3,0-.5,0-.7s-.2-.3-.5-.4c-.2,0-.4-.2-.6-.2-.2,0-.4,0-.5,0l.3-1c0,0,.2,0,.3,0,.1,0,.2,0,.4,0,.1,0,.3,0,.4.1.1,0,.3,0,.4.2ZM270.4,294.8c.1,0,.2,0,.3.1.1,0,.2,0,.3,0l.4-.9s-.1,0-.2-.1c0,0-.2,0-.2-.1-.1,0-.2,0-.3-.1-.1,0-.2,0-.3,0,0,0-.2,0-.2,0,0,0-.1.1-.2.2,0,.2,0,.3,0,.5,0,.1.2.2.4.3Z"/>
            <path id="C" class="st3" d="M265.7,293.5c-.8-.5-1.3-1.1-1.4-1.8-.1-.7,0-1.5.5-2.3.3-.4.5-.7.9-1s.7-.4,1-.5c.4,0,.7,0,1.1,0,.4,0,.7.2,1.1.4.2.1.4.3.5.4.2.1.3.3.4.4s.2.2.2.3c0,0,.1.2.1.2l-.9.7c-.1-.2-.2-.4-.4-.5-.2-.2-.4-.4-.6-.5-.2-.1-.4-.2-.6-.2s-.4,0-.6,0-.4.1-.6.3c-.2.2-.4.4-.6.7-.1.2-.2.5-.3.7,0,.2,0,.4,0,.7,0,.2,0,.4.2.6.1.2.3.4.6.5.2,0,.3.2.5.2s.3.1.4.1c.1,0,.2,0,.3,0,0,0,.2,0,.3,0l-.2,1.1c-.2,0-.5,0-.8-.2-.3-.1-.7-.3-1.1-.5Z"/>
          </g>
        </g>
        <path class="st3" d="M367.4,289.7c-9.8,0-17.3-2.7-22.4-8.2-5.1-5.5-7.7-13.2-7.7-23.2,0-4.6.7-9.1,2.4-13.4,1.4-3.7,3.6-7.1,6.4-9.9,2.8-2.7,6.1-4.8,9.8-6.1,3.9-1.4,8.1-2.1,12.3-2.1,2.3,0,4.7.2,7,.6,1.9.3,3.7.8,5.5,1.3,1.3.4,2.6.9,3.9,1.5,1,.5,1.8.9,2.3,1.2l-3.9,11c-2.1-1.1-4.2-1.9-6.5-2.5-2.7-.7-5.6-1.1-8.4-1.1-2.1,0-4.2.4-6.1,1.1-2,.7-3.8,1.8-5.3,3.4-1.6,1.7-2.9,3.7-3.7,6-1,2.8-1.5,5.9-1.4,8.9,0,2.6.3,5.2.9,7.8.5,2.3,1.5,4.4,3,6.2,1.4,1.8,3.3,3.2,5.4,4.1,2.5,1.1,5.3,1.6,8,1.5,1.8,0,3.6-.1,5.3-.4,1.4-.2,2.8-.5,4.2-.8,1.1-.3,2.2-.6,3.2-1.1.9-.4,1.8-.8,2.5-1.1l3.8,10.9c-2.5,1.4-5.3,2.5-8.1,3.1-4,1-8,1.5-12.1,1.4h0ZM409,279.5c1.3,0,2.5,0,3.7,0,.9,0,1.9-.1,2.8-.3v-9.8c-.5-.1-1.3-.2-2.4-.4-1-.1-1.9-.2-2.9-.2-1.1,0-2.3,0-3.4.2-1,.1-1.9.4-2.8.8-.8.4-1.4.9-1.9,1.6-.5.8-.7,1.7-.7,2.6,0,2,.7,3.4,2,4.2,1.7.9,3.7,1.3,5.6,1.2h0ZM407.9,241.5c3.2,0,6.5.4,9.6,1.3,2.3.7,4.4,2,6.1,3.8,1.6,1.7,2.7,3.7,3.3,5.9.7,2.5,1,5.1,1,7.8v27c-1.9.4-4.4.9-7.8,1.4-4,.6-8,.9-12,.8-2.7,0-5.4-.2-8-.8-2.2-.4-4.3-1.3-6.2-2.6-1.7-1.2-3.1-2.8-4-4.7-1-2.2-1.5-4.6-1.4-7,0-2.4.5-4.7,1.6-6.8,1-1.8,2.5-3.3,4.3-4.4,1.9-1.1,4-2,6.2-2.4,2.4-.5,4.8-.7,7.2-.7,1.5,0,3,0,4.5.2,1.1.1,2.1.3,3.2.6v-1.2c0-2-.6-3.9-2-5.3-1.3-1.3-3.7-2-7-2-2.2,0-4.4.2-6.5.5-1.9.3-3.8.7-5.6,1.4l-1.6-10.4c.8-.2,1.7-.5,2.8-.7,1.1-.3,2.4-.5,3.7-.7,1.3-.2,2.7-.4,4.2-.5,1.5-.1,3-.2,4.5-.2h0ZM447.9,279.2c1.7.1,3.4-.1,5-.7,1-.5,1.6-1.6,1.5-2.7,0-1.2-.8-2.2-1.9-2.7-1.9-1.1-3.8-1.9-5.8-2.6-1.9-.7-3.7-1.5-5.5-2.4-1.6-.7-3-1.7-4.2-2.9-1.2-1.1-2.1-2.5-2.7-4-.7-1.8-1-3.7-1-5.6-.2-4,1.6-7.8,4.8-10.2,3.2-2.5,7.6-3.7,13.1-3.7,2.7,0,5.4.2,8,.7,2.1.4,4.1.9,6.1,1.6l-2.3,10.1c-1.6-.6-3.3-1-4.9-1.4-2-.4-4-.6-6-.6-4.1,0-6.1,1.1-6.1,3.4,0,.5,0,1,.3,1.4.2.5.6.9,1,1.2.7.5,1.4.9,2.1,1.2.9.4,2,.9,3.4,1.4,2.4.9,4.8,1.9,7,3.1,1.6.8,3.1,2,4.4,3.3,1,1.1,1.8,2.5,2.3,4,.5,1.6.7,3.3.6,5,0,4.5-1.7,7.9-5.1,10.3-3.4,2.3-8.2,3.5-14.4,3.5-3.4,0-6.8-.3-10.1-1-1.9-.4-3.8-1-5.6-1.7l2.2-10.5c2.2.9,4.5,1.6,6.8,2,2.3.5,4.6.7,6.9.7h0ZM472.2,288.5v-65.4l13-2.1v21.9c1.1-.3,2.2-.6,3.4-.8,1.3-.3,2.6-.4,4-.4,3.2,0,6.3.4,9.3,1.5,2.3.9,4.4,2.4,5.9,4.3,1.5,1.9,2.6,4.2,3.1,6.6.6,2.8.9,5.7.9,8.5v25.8h-13v-24.3c0-4.2-.5-7.1-1.6-8.9-1.1-1.7-3.1-2.6-6-2.6-1.1,0-2.2,0-3.3.3-1,.2-1.9.4-2.7.6v34.8h-13Z"/>
      </g>
    </g>
  </g>
</svg>